<?xml version="1.0" encoding="UTF-8"?><svg id="Layer_1" xmlns="http://www.w3.org/2000/svg" viewBox="0 0 1080 1080"><defs><style>.cls-1{fill:#1b1b1b;}.cls-2{fill:#fff;stroke-width:6.57px;}.cls-2,.cls-3,.cls-4,.cls-5{stroke:#1b1b1b;stroke-miterlimit:10;}.cls-3{stroke-width:4.49px;}.cls-3,.cls-4,.cls-5{fill:none;}.cls-4{stroke-width:5px;}.cls-5{stroke-width:5.78px;}</style></defs><path class="cls-2" d="m599.79,436.44c279.01-483.26-398.59-483.26-119.58,0-279.01-483.26-617.81,103.56-59.79,103.56-558.02,0-219.22,586.81,59.79,103.56-279.01,483.26,398.59,483.26,119.58,0,279.01,483.26,617.81-103.56,59.79-103.56,558.02,0,219.22-586.81-59.79-103.56Z"/><path class="cls-4" d="m585.53,461.15c212.45-367.97-303.5-367.97-91.05,0-212.45-367.97-470.43,78.85-45.53,78.85-424.9,0-166.92,446.83,45.53,78.85-212.45,367.97,303.5,367.97,91.05,0,212.45,367.97,470.42-78.85,45.52-78.85,424.9,0,166.93-446.83-45.52-78.85Z"/><circle class="cls-1" cx="541.5" cy="533.5" r="45"/><path class="cls-3" d="m580.85,469.24c190.65-330.22-272.36-330.22-81.71,0-190.65-330.22-422.16,70.76-40.85,70.76-381.31,0-149.8,400.98,40.85,70.76-190.65,330.22,272.36,330.22,81.71,0,190.65,330.22,422.16-70.76,40.85-70.76,381.31,0,149.8-400.98-40.85-70.76Z"/><path class="cls-5" d="m592.6,448.89c245.48-425.19-350.69-425.19-105.21,0-245.48-425.19-543.56,91.11-52.6,91.11-490.96,0-192.88,516.3,52.6,91.11-245.48,425.19,350.69,425.19,105.21,0,245.48,425.19,543.56-91.11,52.6-91.11,490.96,0,192.88-516.3-52.6-91.11Z"/></svg>