<?xml version="1.0" encoding="UTF-8"?><svg id="Layer_1" xmlns="http://www.w3.org/2000/svg" viewBox="0 0 989.46 718.21"><defs><style>.cls-1{stroke-width:2.52px;}.cls-1,.cls-2,.cls-3,.cls-4,.cls-5,.cls-6,.cls-7,.cls-8,.cls-9,.cls-10,.cls-11,.cls-12,.cls-13,.cls-14,.cls-15,.cls-16,.cls-17,.cls-18,.cls-19,.cls-20,.cls-21,.cls-22,.cls-23,.cls-24,.cls-25,.cls-26,.cls-27,.cls-28,.cls-29,.cls-30,.cls-31,.cls-32,.cls-33{fill:#fff;stroke:#000;stroke-miterlimit:10;}.cls-2{stroke-width:4.92px;}.cls-3{stroke-width:1.8px;}.cls-4{stroke-width:2.57px;}.cls-5{stroke-width:4.65px;}.cls-6{stroke-width:2.87px;}.cls-7{stroke-width:3.23px;}.cls-8{stroke-width:6.54px;}.cls-9{stroke-width:3.29px;}.cls-10{stroke-width:2.36px;}.cls-11{stroke-width:5.46px;}.cls-12{stroke-width:2.75px;}.cls-13{stroke-width:2.78px;}.cls-14{stroke-width:2.14px;}.cls-15{stroke-width:4.3px;}.cls-16{stroke-width:1.93px;}.cls-17{stroke-width:2.2px;}.cls-18{stroke-width:2.16px;}.cls-19{stroke-width:7.09px;}.cls-20{stroke-width:3.58px;}.cls-21{stroke-width:1.66px;}.cls-22{stroke-width:3.94px;}.cls-23{stroke-width:4.37px;}.cls-24{stroke-width:1.72px;}.cls-25{stroke-width:.87px;}.cls-26{stroke-width:1.5px;}.cls-27{stroke-width:1.09px;}.cls-28{stroke-width:6px;}.cls-29{stroke-width:1.08px;}.cls-30{stroke-width:1.45px;}.cls-31{stroke-width:3.83px;}.cls-32{stroke-width:1.29px;}.cls-33{stroke-width:.65px;}</style></defs><g><path class="cls-5" d="m290.27,2.33H119.33c-11.26,0-21.67,6.01-27.3,15.76L6.55,166.13c-5.63,9.76-5.63,21.77,0,31.53l85.47,148.04c5.63,9.76,16.04,15.76,27.3,15.76h170.94c11.26,0,21.67-6.01,27.3-15.76l85.47-148.04c5.63-9.76,5.63-21.77,0-31.53L317.58,18.09c-5.63-9.76-16.04-15.76-27.3-15.76Z"/><path class="cls-15" d="m286.6,10.05H123c-10.78,0-20.74,5.75-26.13,15.09L15.07,166.81c-5.39,9.34-5.39,20.84,0,30.17l81.8,141.68c5.39,9.34,15.35,15.09,26.13,15.09h163.6c10.78,0,20.74-5.75,26.13-15.09l81.8-141.68c5.39-9.34,5.39-20.84,0-30.17L312.73,25.13c-5.39-9.34-15.35-15.09-26.13-15.09Z"/><path class="cls-22" d="m282.92,17.76H126.67c-10.3,0-19.81,5.49-24.96,14.41L23.59,167.49c-5.15,8.92-5.15,19.9,0,28.82l78.12,135.32c5.15,8.92,14.66,14.41,24.96,14.41h156.25c10.3,0,19.81-5.49,24.96-14.41l78.12-135.32c5.15-8.92,5.15-19.9,0-28.82l-78.12-135.32c-5.15-8.92-14.66-14.41-24.96-14.41Z"/><path class="cls-20" d="m279.25,25.48h-148.9c-9.81,0-18.88,5.23-23.78,13.73L32.11,168.17c-4.91,8.5-4.91,18.97,0,27.46l74.45,128.95c4.91,8.5,13.97,13.73,23.78,13.73h148.9c9.81,0,18.88-5.23,23.78-13.73l74.45-128.95c4.91-8.5,4.91-18.97,0-27.46l-74.45-128.95c-4.91-8.5-13.97-13.73-23.78-13.73Z"/><path class="cls-7" d="m275.58,33.2h-141.55c-9.33,0-17.95,4.98-22.61,13.05l-70.78,122.59c-4.66,8.08-4.66,18.03,0,26.11l70.78,122.59c4.66,8.08,13.28,13.05,22.61,13.05h141.55c9.33,0,17.95-4.98,22.61-13.05l70.78-122.59c4.66-8.08,4.66-18.03,0-26.11l-70.78-122.59c-4.66-8.08-13.28-13.05-22.61-13.05Z"/><path class="cls-6" d="m271.9,40.92h-134.21c-8.84,0-17.02,4.72-21.44,12.38l-67.1,116.23c-4.42,7.66-4.42,17.09,0,24.75l67.1,116.23c4.42,7.66,12.59,12.38,21.44,12.38h134.21c8.84,0,17.02-4.72,21.44-12.38l67.1-116.23c4.42-7.66,4.42-17.09,0-24.75l-67.1-116.23c-4.42-7.66-12.59-12.38-21.44-12.38Z"/><path class="cls-1" d="m268.23,48.64h-126.86c-8.36,0-16.08,4.46-20.26,11.7l-63.43,109.86c-4.18,7.24-4.18,16.16,0,23.4l63.43,109.86c4.18,7.24,11.9,11.7,20.26,11.7h126.86c8.36,0,16.08-4.46,20.26-11.7l63.43-109.86c4.18-7.24,4.18-16.16,0-23.4l-63.43-109.86c-4.18-7.24-11.9-11.7-20.26-11.7Z"/><path class="cls-18" d="m264.56,56.35h-119.51c-7.88,0-15.15,4.2-19.09,11.02l-59.76,103.5c-3.94,6.82-3.94,15.22,0,22.04l59.76,103.5c3.94,6.82,11.21,11.02,19.09,11.02h119.51c7.88,0,15.15-4.2,19.09-11.02l59.76-103.5c3.94-6.82,3.94-15.22,0-22.04l-59.76-103.5c-3.94-6.82-11.21-11.02-19.09-11.02Z"/><path class="cls-3" d="m260.88,64.07h-112.17c-7.39,0-14.22,3.94-17.92,10.34l-56.08,97.14c-3.7,6.4-3.7,14.29,0,20.69l56.08,97.14c3.7,6.4,10.53,10.34,17.92,10.34h112.17c7.39,0,14.22-3.94,17.92-10.34l56.08-97.14c3.7-6.4,3.7-14.29,0-20.69l-56.08-97.14c-3.7-6.4-10.53-10.34-17.92-10.34Z"/><path class="cls-30" d="m257.21,71.79h-104.82c-6.91,0-13.29,3.68-16.74,9.67l-52.41,90.78c-3.45,5.98-3.45,13.35,0,19.33l52.41,90.78c3.45,5.98,9.84,9.67,16.74,9.67h104.82c6.91,0,13.29-3.68,16.74-9.67l52.41-90.78c3.45-5.98,3.45-13.35,0-19.33l-52.41-90.78c-3.45-5.98-9.84-9.67-16.74-9.67Z"/><path class="cls-27" d="m253.53,79.51h-97.47c-6.42,0-12.36,3.43-15.57,8.99l-48.74,84.41c-3.21,5.56-3.21,12.42,0,17.98l48.74,84.41c3.21,5.56,9.15,8.99,15.57,8.99h97.47c6.42,0,12.36-3.43,15.57-8.99l48.74-84.41c3.21-5.56,3.21-12.42,0-17.98l-48.74-84.41c-3.21-5.56-9.15-8.99-15.57-8.99Z"/></g><g><path class="cls-19" d="m807.73,167.74h-260.33c-17.15,0-33.01,9.15-41.58,24.01l-130.16,225.45c-8.58,14.86-8.58,33.16,0,48.02l130.16,225.45c8.58,14.86,24.43,24.01,41.58,24.01h260.33c17.15,0,33.01-9.15,41.58-24.01l130.16-225.45c8.58-14.86,8.58-33.16,0-48.02l-130.16-225.45c-8.58-14.86-24.43-24.01-41.58-24.01Z"/><path class="cls-8" d="m802.14,179.49h-249.14c-16.42,0-31.59,8.76-39.8,22.98l-124.57,215.76c-8.21,14.22-8.21,31.73,0,45.95l124.57,215.76c8.21,14.22,23.38,22.98,39.8,22.98h249.14c16.42,0,31.59-8.76,39.8-22.98l124.57-215.76c8.21-14.22,8.21-31.73,0-45.95l-124.57-215.76c-8.21-14.22-23.38-22.98-39.8-22.98Z"/><path class="cls-28" d="m796.55,191.24h-237.95c-15.68,0-30.17,8.36-38.01,21.94l-118.98,206.07c-7.84,13.58-7.84,30.31,0,43.89l118.98,206.07c7.84,13.58,22.33,21.94,38.01,21.94h237.95c15.68,0,30.17-8.36,38.01-21.94l118.98-206.07c7.84-13.58,7.84-30.31,0-43.89l-118.98-206.07c-7.84-13.58-22.33-21.94-38.01-21.94Z"/><path class="cls-11" d="m790.95,203h-226.76c-14.94,0-28.75,7.97-36.22,20.91l-113.38,196.38c-7.47,12.94-7.47,28.88,0,41.82l113.38,196.38c7.47,12.94,21.28,20.91,36.22,20.91h226.76c14.94,0,28.75-7.97,36.22-20.91l113.38-196.38c7.47-12.94,7.47-28.88,0-41.82l-113.38-196.38c-7.47-12.94-21.28-20.91-36.22-20.91Z"/><path class="cls-2" d="m785.36,214.75h-215.57c-14.21,0-27.33,7.58-34.43,19.88l-107.79,186.69c-7.1,12.3-7.1,27.46,0,39.76l107.79,186.69c7.1,12.3,20.23,19.88,34.43,19.88h215.57c14.21,0,27.33-7.58,34.43-19.88l107.79-186.69c7.1-12.3,7.1-27.46,0-39.76l-107.79-186.69c-7.1-12.3-20.23-19.88-34.43-19.88Z"/><path class="cls-23" d="m779.76,226.5h-204.38c-13.47,0-25.91,7.18-32.65,18.85l-102.19,177c-6.73,11.66-6.73,26.03,0,37.7l102.19,177c6.73,11.66,19.18,18.85,32.65,18.85h204.38c13.47,0,25.91-7.18,32.65-18.85l102.19-177c6.73-11.66,6.73-26.03,0-37.7l-102.19-177c-6.73-11.66-19.18-18.85-32.65-18.85Z"/><path class="cls-31" d="m774.17,238.26h-193.2c-12.73,0-24.49,6.79-30.86,17.82l-96.6,167.31c-6.37,11.02-6.37,24.61,0,35.63l96.6,167.31c6.37,11.02,18.13,17.82,30.86,17.82h193.2c12.73,0,24.49-6.79,30.86-17.82l96.6-167.31c6.37-11.02,6.37-24.61,0-35.63l-96.6-167.31c-6.37-11.02-18.13-17.82-30.86-17.82Z"/><path class="cls-9" d="m768.57,250.01h-182.01c-11.99,0-23.08,6.4-29.07,16.78l-91,157.62c-6,10.39-6,23.18,0,33.57l91,157.62c6,10.39,17.08,16.78,29.07,16.78h182.01c11.99,0,23.08-6.4,29.07-16.78l91-157.62c6-10.39,6-23.18,0-33.57l-91-157.62c-6-10.39-17.08-16.78-29.07-16.78Z"/><path class="cls-12" d="m762.98,261.77h-170.82c-11.26,0-21.66,6-27.28,15.75l-85.41,147.93c-5.63,9.75-5.63,21.76,0,31.51l85.41,147.93c5.63,9.75,16.03,15.75,27.28,15.75h170.82c11.26,0,21.66-6,27.28-15.75l85.41-147.93c5.63-9.75,5.63-21.76,0-31.51l-85.41-147.93c-5.63-9.75-16.03-15.75-27.28-15.75Z"/><path class="cls-17" d="m757.38,273.52h-159.63c-10.52,0-20.24,5.61-25.5,14.72l-79.81,138.24c-5.26,9.11-5.26,20.33,0,29.44l79.81,138.24c5.26,9.11,14.98,14.72,25.5,14.72h159.63c10.52,0,20.24-5.61,25.5-14.72l79.81-138.24c5.26-9.11,5.26-20.33,0-29.44l-79.81-138.24c-5.26-9.11-14.98-14.72-25.5-14.72Z"/><path class="cls-21" d="m751.79,285.27h-148.44c-9.78,0-18.82,5.22-23.71,13.69l-74.22,128.55c-4.89,8.47-4.89,18.91,0,27.38l74.22,128.55c4.89,8.47,13.93,13.69,23.71,13.69h148.44c9.78,0,18.82-5.22,23.71-13.69l74.22-128.55c4.89-8.47,4.89-18.91,0-27.38l-74.22-128.55c-4.89-8.47-13.93-13.69-23.71-13.69Z"/></g><g><path class="cls-13" d="m244.63,449.36h-102.27c-6.74,0-12.97,3.6-16.34,9.43l-51.14,88.57c-3.37,5.84-3.37,13.03,0,18.86l51.14,88.57c3.37,5.84,9.6,9.43,16.34,9.43h102.27c6.74,0,12.97-3.6,16.34-9.43l51.14-88.57c3.37-5.84,3.37-13.03,0-18.86l-51.14-88.57c-3.37-5.84-9.6-9.43-16.34-9.43Z"/><path class="cls-4" d="m242.44,453.98h-97.87c-6.45,0-12.41,3.44-15.63,9.03l-48.94,84.76c-3.22,5.59-3.22,12.47,0,18.05l48.94,84.76c3.22,5.59,9.18,9.03,15.63,9.03h97.87c6.45,0,12.41-3.44,15.63-9.03l48.94-84.76c3.22-5.59,3.22-12.47,0-18.05l-48.94-84.76c-3.22-5.59-9.18-9.03-15.63-9.03Z"/><path class="cls-10" d="m240.24,458.59h-93.48c-6.16,0-11.85,3.29-14.93,8.62l-46.74,80.96c-3.08,5.33-3.08,11.91,0,17.24l46.74,80.96c3.08,5.33,8.77,8.62,14.93,8.62h93.48c6.16,0,11.85-3.29,14.93-8.62l46.74-80.96c3.08-5.33,3.08-11.91,0-17.24l-46.74-80.96c-3.08-5.33-8.77-8.62-14.93-8.62Z"/><path class="cls-14" d="m238.04,463.21h-89.08c-5.87,0-11.29,3.13-14.23,8.22l-44.54,77.15c-2.94,5.08-2.94,11.35,0,16.43l44.54,77.15c2.94,5.08,8.36,8.22,14.23,8.22h89.08c5.87,0,11.29-3.13,14.23-8.22l44.54-77.15c2.94-5.08,2.94-11.35,0-16.43l-44.54-77.15c-2.94-5.08-8.36-8.22-14.23-8.22Z"/><path class="cls-16" d="m235.84,467.83h-84.69c-5.58,0-10.74,2.98-13.53,7.81l-42.34,73.34c-2.79,4.83-2.79,10.79,0,15.62l42.34,73.34c2.79,4.83,7.95,7.81,13.53,7.81h84.69c5.58,0,10.74-2.98,13.53-7.81l42.34-73.34c2.79-4.83,2.79-10.79,0-15.62l-42.34-73.34c-2.79-4.83-7.95-7.81-13.53-7.81Z"/><path class="cls-24" d="m233.64,472.45h-80.29c-5.29,0-10.18,2.82-12.83,7.4l-40.15,69.54c-2.65,4.58-2.65,10.23,0,14.81l40.15,69.54c2.65,4.58,7.53,7.4,12.83,7.4h80.29c5.29,0,10.18-2.82,12.83-7.4l40.15-69.54c2.65-4.58,2.65-10.23,0-14.81l-40.15-69.54c-2.65-4.58-7.53-7.4-12.83-7.4Z"/><path class="cls-26" d="m231.45,477.06h-75.9c-5,0-9.62,2.67-12.12,7l-37.95,65.73c-2.5,4.33-2.5,9.67,0,14l37.95,65.73c2.5,4.33,7.12,7,12.12,7h75.9c5,0,9.62-2.67,12.12-7l37.95-65.73c2.5-4.33,2.5-9.67,0-14l-37.95-65.73c-2.5-4.33-7.12-7-12.12-7Z"/><path class="cls-32" d="m229.25,481.68h-71.5c-4.71,0-9.07,2.51-11.42,6.59l-35.75,61.92c-2.36,4.08-2.36,9.11,0,13.19l35.75,61.92c2.36,4.08,6.71,6.59,11.42,6.59h71.5c4.71,0,9.07-2.51,11.42-6.59l35.75-61.92c2.36-4.08,2.36-9.11,0-13.19l-35.75-61.92c-2.36-4.08-6.71-6.59-11.42-6.59Z"/><path class="cls-29" d="m227.05,486.3h-67.11c-4.42,0-8.51,2.36-10.72,6.19l-33.55,58.12c-2.21,3.83-2.21,8.55,0,12.38l33.55,58.12c2.21,3.83,6.3,6.19,10.72,6.19h67.11c4.42,0,8.51-2.36,10.72-6.19l33.55-58.12c2.21-3.83,2.21-8.55,0-12.38l-33.55-58.12c-2.21-3.83-6.3-6.19-10.72-6.19Z"/><path class="cls-25" d="m224.85,490.92h-62.71c-4.13,0-7.95,2.2-10.02,5.78l-31.35,54.31c-2.07,3.58-2.07,7.99,0,11.57l31.35,54.31c2.07,3.58,5.88,5.78,10.02,5.78h62.71c4.13,0,7.95-2.2,10.02-5.78l31.35-54.31c2.07-3.58,2.07-7.99,0-11.57l-31.35-54.31c-2.07-3.58-5.88-5.78-10.02-5.78Z"/><path class="cls-33" d="m222.65,495.53h-58.31c-3.84,0-7.39,2.05-9.31,5.38l-29.16,50.5c-1.92,3.33-1.92,7.43,0,10.76l29.16,50.5c1.92,3.33,5.47,5.38,9.31,5.38h58.31c3.84,0,7.39-2.05,9.31-5.38l29.16-50.5c1.92-3.33,1.92-7.43,0-10.76l-29.16-50.5c-1.92-3.33-5.47-5.38-9.31-5.38Z"/></g></svg>