<?xml version="1.0" encoding="UTF-8"?><svg id="Layer_1" xmlns="http://www.w3.org/2000/svg" viewBox="0 0 1080 1080"><defs><style>.cls-1{stroke-width:5.08px;}.cls-1,.cls-2,.cls-3,.cls-4,.cls-5,.cls-6,.cls-7,.cls-8,.cls-9,.cls-10,.cls-11{fill:#fff;stroke:#000;stroke-miterlimit:10;}.cls-2{stroke-width:3.24px;}.cls-3{stroke-width:4.62px;}.cls-4{stroke-width:1.86px;}.cls-5{stroke-width:5.54px;}.cls-6{stroke-width:2.78px;}.cls-7{stroke-width:2.32px;}.cls-8{stroke-width:4.16px;}.cls-9{stroke-width:3.7px;}.cls-10{stroke-width:6px;}.cls-11{stroke-width:1.4px;}</style></defs><path class="cls-10" d="m650.19,297.5h-220.38c-14.52,0-27.94,7.75-35.2,20.32l-110.19,190.85c-7.26,12.58-7.26,28.07,0,40.65l110.19,190.85c7.26,12.58,20.68,20.32,35.2,20.32h220.38c14.52,0,27.94-7.75,35.2-20.32l110.19-190.85c7.26-12.58,7.26-28.07,0-40.65l-110.19-190.85c-7.26-12.58-20.68-20.32-35.2-20.32Z"/><path class="cls-5" d="m645.45,307.45h-210.91c-13.9,0-26.74,7.41-33.69,19.45l-105.45,182.65c-6.95,12.04-6.95,26.86,0,38.9l105.45,182.65c6.95,12.04,19.79,19.45,33.69,19.45h210.91c13.9,0,26.74-7.41,33.69-19.45l105.45-182.65c6.95-12.04,6.95-26.86,0-38.9l-105.45-182.65c-6.95-12.04-19.79-19.45-33.69-19.45Z"/><path class="cls-1" d="m640.72,317.4h-201.43c-13.27,0-25.54,7.08-32.18,18.58l-100.72,174.45c-6.64,11.5-6.64,25.66,0,37.15l100.72,174.45c6.64,11.5,18.9,18.58,32.18,18.58h201.43c13.27,0,25.54-7.08,32.18-18.58l100.72-174.45c6.64-11.5,6.64-25.66,0-37.15l-100.72-174.45c-6.64-11.5-18.9-18.58-32.18-18.58Z"/><path class="cls-3" d="m635.98,327.35h-191.96c-12.65,0-24.34,6.75-30.66,17.7l-95.98,166.24c-6.32,10.95-6.32,24.45,0,35.41l95.98,166.24c6.32,10.95,18.01,17.7,30.66,17.7h191.96c12.65,0,24.34-6.75,30.66-17.7l95.98-166.24c6.32-10.95,6.32-24.45,0-35.41l-95.98-166.24c-6.32-10.95-18.01-17.7-30.66-17.7Z"/><path class="cls-8" d="m631.25,337.3h-182.49c-12.03,0-23.14,6.42-29.15,16.83l-91.25,158.04c-6.01,10.41-6.01,23.24,0,33.66l91.25,158.04c6.01,10.41,17.12,16.83,29.15,16.83h182.49c12.03,0,23.14-6.42,29.15-16.83l91.25-158.04c6.01-10.41,6.01-23.24,0-33.66l-91.25-158.04c-6.01-10.41-17.12-16.83-29.15-16.83Z"/><path class="cls-9" d="m626.51,347.25h-173.02c-11.4,0-21.94,6.08-27.64,15.96l-86.51,149.84c-5.7,9.87-5.7,22.04,0,31.91l86.51,149.84c5.7,9.87,16.24,15.96,27.64,15.96h173.02c11.4,0,21.94-6.08,27.64-15.96l86.51-149.84c5.7-9.87,5.7-22.04,0-31.91l-86.51-149.84c-5.7-9.87-16.24-15.96-27.64-15.96Z"/><path class="cls-2" d="m621.77,357.2h-163.55c-10.78,0-20.73,5.75-26.12,15.08l-81.77,141.64c-5.39,9.33-5.39,20.83,0,30.16l81.77,141.64c5.39,9.33,15.35,15.08,26.12,15.08h163.55c10.78,0,20.73-5.75,26.12-15.08l81.77-141.64c5.39-9.33,5.39-20.83,0-30.16l-81.77-141.64c-5.39-9.33-15.35-15.08-26.12-15.08Z"/><path class="cls-6" d="m617.04,367.15h-154.07c-10.15,0-19.53,5.42-24.61,14.21l-77.04,133.43c-5.08,8.79-5.08,19.63,0,28.42l77.04,133.43c5.08,8.79,14.46,14.21,24.61,14.21h154.07c10.15,0,19.53-5.42,24.61-14.21l77.04-133.43c5.08-8.79,5.08-19.63,0-28.42l-77.04-133.43c-5.08-8.79-14.46-14.21-24.61-14.21Z"/><path class="cls-7" d="m612.3,377.1h-144.6c-9.53,0-18.33,5.08-23.1,13.34l-72.3,125.23c-4.76,8.25-4.76,18.42,0,26.67l72.3,125.23c4.76,8.25,13.57,13.34,23.1,13.34h144.6c9.53,0,18.33-5.08,23.1-13.34l72.3-125.23c4.76-8.25,4.76-18.42,0-26.67l-72.3-125.23c-4.76-8.25-13.57-13.34-23.1-13.34Z"/><path class="cls-4" d="m607.57,387.05h-135.13c-8.9,0-17.13,4.75-21.58,12.46l-67.57,117.03c-4.45,7.71-4.45,17.21,0,24.92l67.57,117.03c4.45,7.71,12.68,12.46,21.58,12.46h135.13c8.9,0,17.13-4.75,21.58-12.46l67.57-117.03c4.45-7.71,4.45-17.21,0-24.92l-67.57-117.03c-4.45-7.71-12.68-12.46-21.58-12.46Z"/><path class="cls-11" d="m602.83,397h-125.66c-8.28,0-15.93,4.42-20.07,11.59l-62.83,108.82c-4.14,7.17-4.14,16.01,0,23.18l62.83,108.82c4.14,7.17,11.79,11.59,20.07,11.59h125.66c8.28,0,15.93-4.42,20.07-11.59l62.83-108.82c4.14-7.17,4.14-16.01,0-23.18l-62.83-108.82c-4.14-7.17-11.79-11.59-20.07-11.59Z"/></svg>