<?xml version="1.0" encoding="UTF-8"?><svg id="Layer_1" xmlns="http://www.w3.org/2000/svg" viewBox="0 0 122.88 122.88"><defs><style>.cls-1{fill:#fff;}</style></defs><path class="cls-1" d="m30,13.21c-1.12-1.86-.52-4.27,1.34-5.39,1.86-1.12,4.27-.52,5.39,1.34.02.04.04.07.06.11l5.06,8.73c1.1,1.88.48,4.3-1.41,5.41-1.88,1.1-4.3.48-5.4-1.41l-5.05-8.79Zm31.45,13c19.46.02,35.22,15.8,35.2,35.26-.02,19.46-15.8,35.22-35.26,35.2-19.46-.02-35.22-15.8-35.2-35.26,0-9.34,3.72-18.29,10.33-24.89,6.6-6.62,15.57-10.33,24.92-10.32h.01Zm-3.14-22.2c-.11-2.18,1.57-4.03,3.75-4.14,2.18-.11,4.03,1.57,4.14,3.75,0,.13,0,.27,0,.4v10.06c.11,2.18-1.57,4.03-3.75,4.14-2.18.11-4.03-1.57-4.14-3.75,0-.13,0-.27,0-.4,0,0,0-10.06,0-10.06Zm29.18,6.1c.97-1.94,3.33-2.73,5.27-1.76,1.94.97,2.73,3.33,1.76,5.27-.07.13-.14.26-.22.38l-5.06,8.76c-1.04,1.91-3.42,2.61-5.33,1.58-1.91-1.04-2.61-3.42-1.58-5.33.03-.06.06-.11.1-.17l5.06-8.75h0Zm22.18,19.91c1.88-1.09,4.29-.45,5.38,1.43,1.09,1.88.45,4.29-1.43,5.38h0l-8.75,5.06c-1.88,1.1-4.3.48-5.4-1.41-1.1-1.88-.48-4.3,1.4-5.4l8.81-5.06Zm9.26,28.32c2.18-.11,4.03,1.57,4.14,3.75.11,2.18-1.57,4.03-3.75,4.14-.13,0-.26,0-.4,0h-10.11c-2.18.11-4.03-1.57-4.14-3.75-.11-2.18,1.57-4.03,3.75-4.14.13,0,.26,0,.4,0h10.11Zm-6.15,29.18c1.93,1,2.68,3.37,1.68,5.3s-3.37,2.68-5.3,1.68c-.1-.05-.2-.11-.29-.17l-8.76-5.06c-1.93-.99-2.7-3.35-1.72-5.29s3.35-2.7,5.29-1.72c.11.06.22.12.32.18l8.75,5.06h.03Zm-19.89,22.18c1.09,1.88.45,4.29-1.43,5.38s-4.29.45-5.38-1.43h0l-5.08-8.75c-1.1-1.88-.48-4.3,1.4-5.4s4.3-.48,5.4,1.4l5.06,8.76.02.05Zm-28.32,9.26c.11,2.18-1.57,4.03-3.75,4.14s-4.03-1.57-4.14-3.75c0-.13,0-.26,0-.4v-10.11c-.11-2.18,1.57-4.03,3.75-4.14s4.03,1.57,4.14,3.75c0,.13,0,.26,0,.4v10.11Zm-29.18-6.15c-1.16,1.83-3.59,2.38-5.42,1.22-1.72-1.09-2.33-3.32-1.39-5.13l5.06-8.76c.95-1.95,3.3-2.76,5.25-1.82,1.95.95,2.76,3.3,1.82,5.25-.08.16-.16.31-.26.45l-5.06,8.75v.03Zm-22.18-19.89c-1.88,1.09-4.29.45-5.37-1.43-1.09-1.88-.45-4.29,1.43-5.38l8.73-5.08c1.89-1.1,4.31-.47,5.42,1.42,1.1,1.89.47,4.31-1.42,5.42l-8.76,5.06h-.03Zm-9.21-28.32c-2.18.11-4.03-1.57-4.14-3.75-.11-2.18,1.57-4.03,3.75-4.14.13,0,.27,0,.4,0h10.06c2.18-.11,4.03,1.57,4.14,3.75s-1.57,4.03-3.75,4.14c-.13,0-.27,0-.4,0H4Zm6.1-29.18c-1.94-.97-2.73-3.33-1.76-5.27.97-1.94,3.33-2.73,5.27-1.76.13.07.26.14.38.22l8.76,5.06c1.91,1.04,2.61,3.42,1.58,5.33-1.04,1.91-3.42,2.61-5.33,1.58-.06-.03-.11-.06-.17-.1l-8.74-5.06Z"/></svg>