<?xml version="1.0" encoding="UTF-8"?><svg id="Layer_1" xmlns="http://www.w3.org/2000/svg" viewBox="0 0 1080 1080"><defs><style>.cls-1{stroke-width:6.27px;}.cls-1,.cls-2,.cls-3,.cls-4,.cls-5,.cls-6,.cls-7,.cls-8,.cls-9{fill:#fff;stroke:#000;stroke-miterlimit:10;}.cls-2{stroke-width:6.4px;}.cls-3{stroke-width:6.54px;}.cls-4{stroke-width:7.07px;}.cls-5{stroke-width:6.94px;}.cls-6{stroke-width:6px;}.cls-7{stroke-width:6.67px;}.cls-8{stroke-width:6.8px;}.cls-9{stroke-width:6.13px;}</style></defs><path class="cls-4" d="m568.02,117.79l91.23,280.77c3.94,12.14,15.26,20.36,28.02,20.36h295.22c28.54,0,40.41,36.52,17.32,53.3l-238.84,173.52c-10.33,7.5-14.65,20.8-10.7,32.94l91.23,280.77c8.82,27.14-22.25,49.71-45.34,32.94l-238.84-173.52c-10.33-7.5-24.31-7.5-34.63,0l-238.84,173.52c-23.09,16.78-54.16-5.8-45.34-32.94l91.23-280.77c3.94-12.14-.38-25.44-10.7-32.94l-238.84-173.52c-23.09-16.78-11.22-53.3,17.32-53.3h295.22c12.76,0,24.08-8.22,28.02-20.36l91.23-280.77c8.82-27.14,47.22-27.14,56.04,0Z"/><path class="cls-5" d="m566.2,145.69l85.31,262.55c3.69,11.35,14.27,19.04,26.2,19.04h276.06c26.69,0,37.78,34.15,16.19,49.84l-223.34,162.27c-9.66,7.02-13.7,19.45-10.01,30.8l85.31,262.55c8.25,25.38-20.8,46.49-42.39,30.8l-223.34-162.27c-9.66-7.02-22.73-7.02-32.39,0l-223.34,162.27c-21.59,15.69-50.64-5.42-42.39-30.8l85.31-262.55c3.69-11.35-.35-23.79-10.01-30.8l-223.34-162.27c-21.59-15.69-10.49-49.84,16.19-49.84h276.06c11.94,0,22.51-7.69,26.2-19.04l85.31-262.55c8.25-25.38,44.16-25.38,52.4,0Z"/><path class="cls-8" d="m564.38,173.58l79.39,244.33c3.43,10.56,13.28,17.72,24.38,17.72h256.91c24.84,0,35.16,31.78,15.07,46.38l-207.84,151.01c-8.99,6.53-12.75,18.1-9.31,28.66l79.39,244.33c7.67,23.62-19.36,43.26-39.45,28.66l-207.84-151.01c-8.99-6.53-21.15-6.53-30.14,0l-207.84,151.01c-20.09,14.6-47.13-5.04-39.45-28.66l79.39-244.33c3.43-10.56-.33-22.14-9.31-28.66l-207.84-151.01c-20.09-14.6-9.77-46.38,15.07-46.38h256.91c11.11,0,20.95-7.15,24.38-17.72l79.39-244.33c7.67-23.62,41.09-23.62,48.77,0Z"/><path class="cls-7" d="m562.57,201.48l73.47,226.12c3.18,9.78,12.29,16.39,22.57,16.39h237.75c22.98,0,32.54,29.41,13.95,42.92l-192.35,139.75c-8.32,6.04-11.8,16.75-8.62,26.53l73.47,226.12c7.1,21.86-17.92,40.04-36.51,26.53l-192.35-139.75c-8.32-6.04-19.58-6.04-27.89,0l-192.35,139.75c-18.59,13.51-43.61-4.67-36.51-26.53l73.47-226.12c3.18-9.78-.3-20.49-8.62-26.53l-192.35-139.75c-18.59-13.51-9.04-42.92,13.95-42.92h237.75c10.28,0,19.39-6.62,22.57-16.39l73.47-226.12c7.1-21.86,38.03-21.86,45.13,0Z"/><path class="cls-3" d="m560.75,229.38l67.55,207.9c2.92,8.99,11.3,15.07,20.75,15.07h218.6c21.13,0,29.92,27.04,12.82,39.46l-176.85,128.49c-7.65,5.56-10.85,15.4-7.92,24.39l67.55,207.9c6.53,20.1-16.47,36.81-33.57,24.39l-176.85-128.49c-7.65-5.56-18-5.56-25.65,0l-176.85,128.49c-17.1,12.42-40.1-4.29-33.57-24.39l67.55-207.9c2.92-8.99-.28-18.83-7.92-24.39l-176.85-128.49c-17.1-12.42-8.31-39.46,12.82-39.46h218.6c9.45,0,17.83-6.09,20.75-15.07l67.55-207.9c6.53-20.1,34.96-20.1,41.49,0Z"/><path class="cls-2" d="m558.93,257.28l61.63,189.68c2.66,8.2,10.31,13.75,18.93,13.75h199.44c19.28,0,27.3,24.67,11.7,36.01l-161.35,117.23c-6.98,5.07-9.89,14.05-7.23,22.25l61.63,189.68c5.96,18.34-15.03,33.59-30.63,22.25l-161.35-117.23c-6.98-5.07-16.42-5.07-23.4,0l-161.35,117.23c-15.6,11.33-36.59-3.92-30.63-22.25l61.63-189.68c2.66-8.2-.25-17.18-7.23-22.25l-161.35-117.23c-15.6-11.33-7.58-36.01,11.7-36.01h199.44c8.62,0,16.26-5.55,18.93-13.75l61.63-189.68c5.96-18.34,31.9-18.34,37.86,0Z"/><path class="cls-1" d="m557.11,285.18l55.71,171.46c2.41,7.41,9.32,12.43,17.11,12.43h180.29c17.43,0,24.68,22.3,10.58,32.55l-145.86,105.97c-6.31,4.58-8.94,12.7-6.54,20.12l55.71,171.46c5.39,16.58-13.59,30.36-27.69,20.12l-145.86-105.97c-6.31-4.58-14.84-4.58-21.15,0l-145.86,105.97c-14.1,10.24-33.07-3.54-27.69-20.12l55.71-171.46c2.41-7.41-.23-15.53-6.54-20.12l-145.86-105.97c-14.1-10.24-6.85-32.55,10.58-32.55h180.29c7.79,0,14.7-5.02,17.11-12.43l55.71-171.46c5.39-16.58,28.84-16.58,34.22,0Z"/><path class="cls-9" d="m555.29,313.08l49.79,153.25c2.15,6.63,8.33,11.11,15.29,11.11h161.13c15.58,0,22.05,19.93,9.45,29.09l-130.36,94.71c-5.64,4.09-7.99,11.35-5.84,17.98l49.79,153.25c4.81,14.82-12.14,27.13-24.75,17.98l-130.36-94.71c-5.64-4.09-13.27-4.09-18.9,0l-130.36,94.71c-12.6,9.16-29.56-3.16-24.75-17.98l49.79-153.25c2.15-6.63-.21-13.88-5.84-17.98l-130.36-94.71c-12.6-9.16-6.13-29.09,9.45-29.09h161.13c6.97,0,13.14-4.49,15.29-11.11l49.79-153.25c4.81-14.82,25.77-14.82,30.59,0Z"/><path class="cls-6" d="m553.48,340.98l43.87,135.03c1.9,5.84,7.34,9.79,13.48,9.79h141.98c13.73,0,19.43,17.56,8.33,25.63l-114.86,83.45c-4.97,3.61-7.04,10-5.15,15.84l43.87,135.03c4.24,13.05-10.7,23.91-21.8,15.84l-114.86-83.45c-4.97-3.61-11.69-3.61-16.66,0l-114.86,83.45c-11.1,8.07-26.05-2.79-21.8-15.84l43.87-135.03c1.9-5.84-.18-12.23-5.15-15.84l-114.86-83.45c-11.1-8.07-5.4-25.63,8.33-25.63h141.98c6.14,0,11.58-3.95,13.48-9.79l43.87-135.03c4.24-13.05,22.71-13.05,26.95,0Z"/></svg>